<?xml version="1.0" encoding="utf-8"?>
<!-- Generator: Adobe Illustrator 27.4.0, SVG Export Plug-In . SVG Version: 6.00 Build 0)  -->
<svg version="1.1" id="Capa_1" xmlns="http://www.w3.org/2000/svg" xmlns:xlink="http://www.w3.org/1999/xlink" x="0px" y="0px"
	 viewBox="0 0 333.4 333.4" style="enable-background:new 0 0 333.4 333.4;" xml:space="preserve">
<style type="text/css">
	.st0{fill:#FFFF00;}
	.st1{fill:#FF0000;}
	.st2{fill:#0013FF;}
	.st3{fill:#FF9700;}
	.st4{fill:#00FF0C;}
	.st5{fill:#BC1FC1;}
	.st6{font-family:'Algerian';}
	.st7{font-size:24.1179px;}
</style>
<g>
	<g>
		<path d="M324.7,170.2l-14-1.1c-2.5-3.2-5.3-8.5-7.1-17.5l-0.8-3.9l-3.9-0.5c-0.4-0.1-42.9-5.3-76.5-12.4
			c-28.1-6-44.6,4.9-50.4,9.9c-1.8,1.5-3.4,3.2-4.7,4.9c-1.3-1.7-2.9-3.3-4.7-4.9c-5.8-5-22.2-15.8-50.4-9.9
			c-33.6,7.1-76.1,12.4-76.5,12.4l-3.9,0.5l-0.7,3.8c-1.7,8.9-4.5,14.2-7,17.4l-15.4,1.1c-5.2,0.4-9.1,4.9-8.7,10.1
			c0.4,5.2,4.9,9.1,10.1,8.7l116.2-8.7c5.3,9.3,17.2,19.9,39.7,19.9c0.2,0,0.4,0,0.7-0.1c0.2,0,0.4,0.1,0.7,0.1
			c22.5,0,34.4-10.6,39.7-19.9l116.2,8.7c5.2,0.4,9.7-3.5,10.1-8.7C333.8,175.2,329.9,170.6,324.7,170.2z M201.6,161
			c-4.9-0.4-9.1,2.9-10,7.6c0,0.1-2.7,12.7-24.3,12.7c-0.2,0-0.4,0.1-0.7,0.1c-0.2,0-0.4-0.1-0.7-0.1c-20.6,0-24-11.6-24.3-12.7
			c-0.9-4.7-5.2-8-10-7.6l-94.5,7.1c1.4-3,2.6-6.4,3.6-10.5c11.3-1.5,45.5-6.1,73.6-12.1c16.2-3.4,31.6-0.6,41.1,7.5
			c4.9,4.2,6.5,8.3,6.3,10.6c0,0,0,0.1,0,0.1c0,0.2,0,0.3,0,0.5c0,0.2,0.1,0.5,0.2,0.7c0.1,0.4,0.1,0.8,0.3,1.1
			c0.1,0.3,0.3,0.5,0.5,0.8c0.2,0.3,0.4,0.6,0.7,0.9c0.2,0.2,0.5,0.4,0.8,0.6c0.3,0.2,0.6,0.4,0.9,0.5c0.3,0.1,0.7,0.2,1.1,0.3
			c0.2,0,0.5,0.2,0.7,0.2c0.1,0,0.2,0,0.3,0c0.1,0,0.2,0,0.3,0c0.3,0,0.5-0.1,0.8-0.2c0.3-0.1,0.6-0.1,0.9-0.2
			c0.4-0.2,0.7-0.4,1-0.6c0.2-0.2,0.5-0.3,0.7-0.5c0.3-0.3,0.5-0.6,0.7-0.9c0.2-0.2,0.3-0.5,0.5-0.8c0.2-0.4,0.2-0.7,0.3-1.1
			c0.1-0.2,0.2-0.4,0.2-0.7c0-0.2,0-0.3,0-0.5c0,0,0-0.1,0-0.1c-0.1-2.3,1.5-6.4,6.3-10.6c9.5-8.1,24.9-10.9,41.1-7.5
			c28.1,5.9,62.4,10.6,73.6,12.1c1,4.2,2.3,7.7,3.7,10.6L201.6,161z"/>
	</g>
</g>
<polygon class="st0" points="167.4,119.6 159.4,24.6 175.4,24.6 "/>
<polygon class="st1" points="149.7,112.7 118.4,51.2 131.2,46.2 "/>
<polygon class="st2" points="185.3,114.1 216.5,52.6 203.7,47.6 "/>
<polygon class="st3" points="95.5,70.6 71.7,46.8 78,41.9 "/>
<polygon class="st4" points="231,70.6 254.8,46.8 248.5,41.9 "/>
<polygon class="st1" points="118.2,126.3 60.7,88.2 69.4,77.5 "/>
<polygon class="st2" points="216,121.7 273.5,83.6 264.8,72.9 "/>
<text transform="matrix(1.1068 0 0 1 88.1248 227.6415)" class="st5 st6 st7">Guttenlive</text>
</svg>
